PathFileType	4	(X/Y/Z)	 s10c0001.trc
DataRate	CameraRate	NumFrames	NumMarkers	Units	OrigDataRate	OrigDataStartFrame	OrigNumFrames
200	200	4	49	mm	200	251	2000
Frame#	Time	racr			lacr			c7			jug			rlel			rdr			llel			ldr			s2			lic			ric			lasi			rasi			rpsi			lpsi			rgt			lgt			rth1			rth2			rth3			rth4			rlfc			rmfc			rsh1			rsh2			rsh3			rsh4			rlmal			rmmal			rcal			rtoe			rmt5			rmt1			lth1			lth2			lth4			lth3			llfc			lmfc			llmal			lmmal			lcal			lmt1			lmt5			lsh1			lsh2			lsh3			lsh4			ltoe			
		X1	Y1	Z1	X2	Y2	Z2	X3	Y3	Z3	X4	Y4	Z4	X5	Y5	Z5	X6	Y6	Z6	X7	Y7	Z7	X8	Y8	Z8	X9	Y9	Z9	X10	Y10	Z10	X11	Y11	Z11	X12	Y12	Z12	X13	Y13	Z13	X14	Y14	Z14	X15	Y15	Z15	X16	Y16	Z16	X17	Y17	Z17	X18	Y18	Z18	X19	Y19	Z19	X20	Y20	Z20	X21	Y21	Z21	X22	Y22	Z22	X23	Y23	Z23	X24	Y24	Z24	X25	Y25	Z25	X26	Y26	Z26	X27	Y27	Z27	X28	Y28	Z28	X29	Y29	Z29	X30	Y30	Z30	X31	Y31	Z31	X32	Y32	Z32	X33	Y33	Z33	X34	Y34	Z34	X35	Y35	Z35	X36	Y36	Z36	X37	Y37	Z37	X38	Y38	Z38	X39	Y39	Z39	X40	Y40	Z40	X41	Y41	Z41	X42	Y42	Z42	X43	Y43	Z43	X44	Y44	Z44	X45	Y45	Z45	X46	Y46	Z46	X47	Y47	Z47	X48	Y48	Z48	X49	Y49	Z49	
251	1.2550	464.738120	1376.935541	683.794996	483.622390	1386.733689	305.396071	433.395919	1426.586233	485.473503	564.537757	1373.201349	501.973096	456.563664	1119.067173	814.057869	477.537380	906.105240	925.157964	481.171411	1107.903250	195.959121	534.490948	904.360599	93.250928	387.408736	930.668075	496.420554	534.185539	993.411820	350.207862	537.933062	1001.588870	649.417936	597.860526	918.372542	383.001009	582.106452	907.599907	638.976048	406.576554	972.381876	558.823794	406.758692	983.920324	445.581500	465.128921	853.757456	684.269340	471.827700	854.457092	308.595956	484.719984	729.202752	714.900845	507.153833	643.321050	700.470315	485.053341	561.436709	691.906772	543.920439	645.981326	691.848205	493.869746	459.324861	675.068574	481.793106	441.139566	562.418712	447.944210	360.137169	716.895580	468.972588	273.236677	714.727201	444.251191	190.657507	716.746910	500.674351	274.196350	691.575326	454.075709	84.998601	709.940191	483.540639	95.899018	630.073838	420.205120	50.417293	655.049301	651.986223	85.085521	711.270527	566.098069	42.144606	755.880515	609.718625	46.714817	658.381835	493.696677	746.157304	282.977175	515.416219	664.989557	292.490032	550.090288	666.156674	304.952391	494.293516	577.851617	301.157986	495.543847	472.709957	315.084282	491.412822	454.737587	425.574927	450.751927	103.900294	284.020500	469.854684	100.979212	362.289788	411.036324	58.727228	327.088455	612.113285	47.352458	347.315744	579.643537	46.094717	245.165235	446.232240	364.330950	269.916415	472.473099	281.451026	275.797068	451.920546	194.320699	273.348387	501.480783	283.082382	301.584850	653.374905	92.346342	295.253007	
252	1.2600	464.734836	1376.948385	683.802783	483.635677	1386.735150	305.408528	433.402843	1426.591007	485.479460	564.526627	1373.209201	501.996890	456.577054	1119.083490	814.071221	477.546452	906.124690	925.175278	481.194745	1107.890830	195.955527	534.498192	904.359469	93.238189	387.413626	930.682377	496.421981	534.198438	993.421247	350.210085	537.999532	1001.584328	649.428515	597.873072	918.374720	383.010215	582.116213	907.594578	638.976462	406.614845	972.384656	558.824118	406.771817	983.914071	445.566934	465.133037	853.784676	684.271306	471.831774	854.470045	308.604098	484.721545	729.203457	714.896488	507.189800	643.328208	700.483673	485.057304	561.452557	691.907639	543.939448	645.995891	691.860573	493.879384	459.315710	675.065626	481.803587	441.148695	562.424994	447.939545	360.154766	716.900285	468.972975	273.223061	714.734945	444.273935	190.635772	716.728913	500.665120	274.191189	691.567907	454.109383	84.996861	709.945331	483.521622	95.883503	630.073511	420.246649	50.383176	655.045193	651.994378	85.088048	711.276317	566.104383	42.152095	755.876031	609.702396	46.711431	658.384246	493.694278	746.167125	282.959013	515.379999	665.026790	292.463816	550.092536	666.151261	304.959947	494.299264	577.870046	301.148247	495.522536	472.704881	315.097664	491.419044	454.749265	425.579705	450.761433	103.890130	284.026115	469.860165	101.002426	362.308071	411.041912	58.732164	327.092325	612.122794	47.349165	347.313987	579.624464	46.105711	245.181065	446.239816	364.321254	269.911018	472.454706	281.449575	275.793195	451.895490	194.317323	273.339580	501.464838	283.087920	301.572465	653.391879	92.353611	295.247454	
253	1.2650	464.738301	1376.957581	683.810781	483.673688	1386.725862	305.417570	433.417569	1426.602645	485.520351	564.522795	1373.194469	501.995458	456.552373	1119.084389	814.083439	477.547731	906.140412	925.202405	481.222917	1107.913062	195.957665	534.501480	904.365288	93.223874	387.422090	930.682684	496.409453	534.228555	993.420110	350.209830	537.989670	1001.595537	649.445443	597.885704	918.371149	383.003077	582.126924	907.598565	638.984539	406.654020	972.400905	558.820891	406.792666	983.931646	445.578062	465.184819	853.789331	684.273128	471.840931	854.462879	308.593315	484.726901	729.214394	714.910396	507.174282	643.343031	700.478755	485.051500	561.447081	691.913157	543.958015	646.012009	691.876443	493.878677	459.322558	675.072288	481.818567	441.158431	562.432737	447.950567	360.160690	716.901059	468.980210	273.227262	714.725088	444.279160	190.612208	716.732477	500.666283	274.192991	691.557861	454.124479	84.994236	709.945864	483.522305	95.879671	630.079572	420.289454	50.350119	655.067884	651.996169	85.084710	711.296123	566.151995	42.158737	755.880939	609.713654	46.715453	658.387869	493.703500	746.165708	282.968505	515.419262	665.011694	292.505084	550.090276	666.156511	304.952340	494.213494	577.851166	301.116584	495.541129	472.708146	315.098449	491.436753	454.760502	425.587194	450.780231	103.918271	284.024111	469.886784	101.016651	362.302630	411.043621	58.734943	327.100216	612.149568	47.382247	347.326639	579.624625	46.106706	245.188050	446.234723	364.341245	269.915636	472.474311	281.458216	275.784022	451.900189	194.306673	273.327691	501.473787	283.093817	301.581728	653.401286	92.362959	295.258831	
254	1.2700	464.744451	1376.969335	683.823344	483.689361	1386.741723	305.424353	433.452678	1426.618269	485.500012	564.529664	1373.193363	502.003100	456.619173	1119.163831	814.180198	477.560019	906.166235	925.248013	481.219486	1107.926489	195.936692	534.519975	904.377510	93.222305	387.426846	930.687185	496.411058	534.228288	993.423063	350.219225	538.012786	1001.605392	649.456802	597.883164	918.370534	383.009634	582.132318	907.592140	638.989955	406.691415	972.390189	558.824774	406.814265	983.927262	445.574241	465.176620	853.796283	684.275472	471.853351	854.470069	308.598292	484.747697	729.221444	714.921741	507.186604	643.354583	700.490243	485.069314	561.459300	691.915690	543.979770	646.026465	691.890324	493.909674	459.334855	675.073469	481.837735	441.168077	562.441535	447.960882	360.157897	716.902849	468.973385	273.249527	714.725227	444.290620	190.628409	716.725653	500.690624	274.197253	691.570542	454.137282	85.008439	709.955851	483.531696	95.874639	630.065295	420.149323	50.558084	654.967502	652.004854	85.087026	711.288836	566.172250	42.191619	755.883984	609.717071	46.705712	658.395148	493.725537	746.160668	282.966923	515.366600	665.044218	292.415849	550.090268	666.156400	304.952305	494.306121	577.868004	301.163327	495.559045	472.723911	315.090241	491.434470	454.769805	425.589126	450.790814	103.926982	284.015028	469.915951	101.021757	362.306567	411.053860	58.742819	327.100210	612.152543	47.383622	347.338885	579.627007	46.106105	245.182826	446.239646	364.337006	269.907721	472.467443	281.467091	275.781994	451.876008	194.318273	273.326908	501.480176	283.081839	301.584692	653.398327	92.359300	295.260810	
